<svg width="110" height="71" viewBox="0 0 110 71" fill="none" xmlns="http://www.w3.org/2000/svg">
<path d="M6.39288 21.2327C9.57073 21.2327 11.9397 23.1168 11.9597 28.4465C11.9405 34.673 8.45199 35.2663 6.32567 35.2663C4.02243 35.3307 0.735107 34.806 0.735107 28.4465C0.735107 23.2938 3.0366 21.2327 6.39288 21.2327ZM5.25114 28.2933C5.18417 31.6254 5.71043 32.2178 6.36689 32.2178C7.15954 32.2178 7.55287 30.7935 7.55287 28.2933C7.55287 24.456 6.63077 24.8076 6.39288 24.8076C6.01779 24.8076 5.25114 25.2686 5.25114 28.2933Z" fill="#005DE2"/>
<path d="M23.2519 33.3153C23.2317 34.4333 21.9155 35.5083 20.6433 35.4636C17.1134 35.3544 19.746 30.5285 17.1134 31.145C17.1796 32.2178 17.2451 33.1169 17.0719 33.995C16.7643 35.5288 13.4305 35.9464 13.1446 33.7334C13.0344 32.899 13.0787 31.8457 13.0577 30.8601C13.0577 28.0101 13.1014 27.1543 12.838 24.7653C13.5187 24.5007 16.5891 23.5131 17.0039 25.6642C17.1349 26.8474 17.0914 27.3739 17.0914 28.7781C17.6626 28.7781 18.1459 28.7543 18.2746 27.8117C18.4305 26.7372 18.56 25.6642 18.607 24.5449C19.6578 24.259 21.4562 23.6905 22.0467 25.1821C22.7492 27.0226 21.0811 29.5652 19.8789 29.7204C21.8508 29.8059 22.5527 30.8811 22.6639 31.9559C22.7712 32.9847 22.8366 33.2051 23.2519 33.3153Z" fill="#005DE2"/>
<path d="M24.019 38.7308C24.019 35.289 24.2185 28.3161 24.019 24.6552C25.6881 23.9295 27.2879 24.3031 27.5737 26.4094C28.1432 24.5437 29.8305 24.1719 30.3815 24.1719C32.156 24.1499 34.1309 25.8389 33.9095 30.7288C33.6901 35.8153 29.3729 36.9555 27.7481 33.5358C27.7721 33.7552 27.7269 38.753 28.6253 38.7315C28.3416 41.2746 24.019 41.8436 24.019 38.7308ZM29.6783 31.7586C29.8305 30.289 29.9637 27.2186 28.8909 27.3508C28.3636 27.4162 28.1432 28.0959 28.1432 28.534V31.3195C28.3856 32.9425 29.5689 32.7231 29.6783 31.7586Z" fill="#005DE2"/>
<path d="M43.3822 31.6706C44.524 31.6935 44.4578 33.2504 43.6249 34.0832C42.6825 35.0256 41.0802 35.5728 39.5442 35.4206C37.7482 35.2442 34.5906 34.3679 34.5906 30.0255C34.5906 25.8609 37.4406 24.0616 39.6109 24.0844C42.9872 24.1076 44.1521 26.1879 44.412 27.4379C45.2676 31.5388 41.0348 31.7593 39.238 31.4731C39.239 33.4028 42.5693 32.7671 43.3822 31.6706ZM39.8975 29.521C40.4897 28.7101 41.0355 27.0653 39.7671 27.199C38.9992 27.3514 38.9544 29.6754 39.1756 30.0917C39.2178 30.1787 39.6569 29.8721 39.8975 29.521Z" fill="#005DE2"/>
<path d="M54.216 26.7802C54.1725 27.6803 52.8995 28.3583 51.8045 28.1609C51.8935 27.7233 51.7615 27.132 51.1451 27.0433C50.181 26.9349 49.4121 28.6221 49.4121 30.202C49.4121 32.8763 51.934 32.9425 53.5352 31.4721C55.7713 31.866 54.148 35.5931 50.203 35.4409C48.8223 35.3974 45.2909 34.7177 45.2264 29.8279C44.9418 22.8989 54.3911 22.9234 54.216 26.7802Z" fill="#005DE2"/>
<path d="M70.7261 33.0527C70.8141 35.0901 66.1211 36.6471 66.0359 33.467C66.0137 32.8763 66.1876 28.2708 66.1876 28.2708C66.2081 27.1983 64.6983 26.9779 64.6113 28.3575C64.5441 30.0026 64.8085 30.8584 64.7635 33.1402C64.743 34.3451 64.7842 35.2662 63.097 35.2662C61.1668 35.2882 60.838 34.1027 60.8827 32.8103L61.0359 28.2925C61.0359 26.8457 59.3674 27.1745 59.4786 28.3785C59.6327 30.0245 59.5877 31.6036 59.5655 33.1389C59.5018 34.3441 59.2599 35.2652 57.5699 35.2652C55.6415 35.2872 55.5528 34.3894 55.5528 33.0942L55.531 27.9637C55.531 26.9124 55.4676 25.5093 55.3334 24.7176C55.3334 24.7176 56.146 24.2793 57.0431 24.2793C58.1854 24.2793 58.7339 24.6741 58.6667 26.1217C59.2796 23.5114 63.666 23.7091 64.3247 25.8154C65.2448 23.2045 70.2001 23.3794 70.2001 28.0084C70.1546 28.7763 70.1114 29.6082 70.1346 31.2755C70.1546 32.5474 70.3103 32.9425 70.7261 33.0527Z" fill="#005DE2"/>
<path d="M81.3187 31.2545C81.3392 32.5265 81.4909 32.9205 81.9092 33.0287C81.9092 34.2595 80.6403 35.267 79.1474 35.267C78.2503 35.267 77.4394 34.763 77.3715 33.4678L77.3257 30.9906C76.8659 31.0778 76.2754 31.188 75.7694 31.188C75.7694 31.9122 75.7909 32.5265 75.7909 33.1402C75.7909 34.3901 75.4173 35.2663 73.7101 35.2663C71.8661 35.2663 71.7989 34.3662 71.7789 33.095C71.7592 31.0771 71.7592 29.1482 71.7592 27.2413C71.7592 26.0123 71.7369 25.5745 71.6042 24.7184C71.6042 24.7184 73.0299 24.2803 73.9287 24.2803C75.1114 24.2803 75.7047 24.6974 75.7047 25.8381C75.7047 26.8247 75.6592 27.6988 75.7047 28.5559C76.2307 28.5332 76.8444 28.4457 77.3267 28.2926C77.3067 25.8381 77.2845 25.4421 77.176 24.7184C77.176 24.7184 78.5999 24.2803 79.4978 24.2803C80.6593 24.2803 81.3187 24.6974 81.3187 25.8381V31.2545Z" fill="#005DE2"/>
<path d="M86.8684 27.5914C89.081 26.649 92.8758 27.2186 92.5012 31.6706C92.2826 34.4114 89.8496 35.4637 87.5899 35.4417C84.9158 35.4207 82.9202 34.0605 82.9202 31.3857C82.9202 27.8108 83.0321 26.2117 82.7877 24.7184C82.7877 24.7184 84.2151 24.2803 85.1129 24.2803C86.2537 24.2803 86.9322 24.6974 86.8907 25.8381C86.8684 26.3209 86.8684 26.9559 86.8684 27.5914ZM87.2178 31.956C87.2628 32.3933 87.4589 32.8983 87.985 32.8983C88.4233 32.8983 88.8416 31.6936 88.7529 30.7482C88.6641 29.9816 88.3148 29.6984 87.985 29.6984C87.7448 29.6984 87.4814 29.8059 87.2393 29.9816C87.1758 30.1787 87.1758 31.5169 87.2178 31.956ZM97.7639 31.2545C97.7879 32.5265 97.9396 32.9205 98.3561 33.0287C98.3776 35.1131 93.9726 36.6042 93.8184 33.4678C93.7761 26.2327 93.7762 25.7279 93.6212 24.7194C93.6212 24.7194 95.0451 24.2811 95.9457 24.2811C97.0854 24.2811 97.8086 24.6982 97.7639 25.8389V31.2545Z" fill="#005DE2"/>
<path d="M103.379 31.7585C103.487 32.723 104.673 32.9424 104.915 31.3194L104.892 27.8772C104.892 25.9685 104.806 24.4794 106.888 24.4794C109.124 24.4794 108.841 26.2117 108.841 27.8549V31.8669C108.841 32.6568 109.124 32.745 109.476 32.8315C109.367 35.156 105.66 36.6248 105.309 33.3153C103.776 36.9107 99.3445 35.8807 99.3445 30.7279V26.9124C99.3445 25.8803 99.3677 25.4862 99.2325 25.0254C99.4754 24.8497 103.05 22.7015 103.336 26.8456C103.336 27.4379 103.335 31.3194 103.379 31.7585ZM106.185 19.9624C107.501 20.5741 107.349 21.8258 106.384 22.5718C105.333 23.3607 103.644 23.9514 102.635 23.4694C101.691 22.9661 101.384 21.8248 102.305 20.8395C103.487 21.0149 104.696 21.2528 106.185 19.9624Z" fill="#005DE2"/>
<path d="M37.9903 41.2669C37.948 39.6234 39.4169 38.8115 40.9075 38.9424C42.5958 39.0984 43.0566 39.5804 43.4294 40.8726C43.9329 42.6478 44.1736 45.7624 44.1736 45.717C44.1955 45.717 44.5456 41.1557 45.0957 40.0804C46.1035 38.1333 49.9855 39.1818 51.1238 39.4469C50.8182 41.0465 51.1447 41.1557 50.9713 47.7803C50.9301 49.0735 50.4221 49.8826 49.0864 49.8826C47.5278 49.8826 47.3094 49.0305 47.288 47.8235C47.3082 46.8352 47.4846 43.5024 47.7033 42.2525C46.8704 43.3073 46.7612 47.7993 46.1692 48.9633C45.8416 49.5745 45.2713 49.9051 44.2838 49.8826C42.9463 49.8621 42.5745 48.9418 42.4411 47.5377C42.3089 45.8019 41.8049 43.1756 41.3885 42.2087L41.5855 46.9909C41.7404 51.6803 37.2216 49.7974 37.2878 47.6461C37.7049 47.5377 37.8591 47.1433 37.9028 45.8709L37.9903 41.2669Z" fill="#005DE2"/>
<path d="M56.1444 46.3761C56.2546 47.343 57.4391 47.5599 57.6802 45.9373L57.658 42.4961C57.658 40.5884 57.57 39.0983 59.6544 39.0983C61.8919 39.0983 61.605 40.8303 61.605 42.4746V46.4863C61.605 47.2758 61.8919 47.3637 62.2412 47.4514C62.1328 49.7742 58.4274 51.2445 58.0763 47.9337C56.5412 51.5286 52.1126 50.4991 52.1126 45.3449V41.531C52.1126 40.4997 52.1312 40.1064 52.0017 39.6448C52.2421 39.4684 55.8173 37.3206 56.1014 41.463C56.1014 42.057 56.1014 45.9373 56.1444 46.3761Z" fill="#005DE2"/>
<path d="M63.1193 53.3503C63.1193 49.9068 63.3174 42.9351 63.1193 39.2712C64.7843 38.549 66.3866 38.9216 66.6697 41.0239C67.2394 39.1645 68.9287 38.7891 69.4797 38.7891C71.2547 38.7677 73.2281 40.4557 73.0092 45.3448C72.7888 50.4318 68.4696 51.5733 66.8454 48.1523C66.8694 48.3727 66.8254 53.371 67.7252 53.3503C67.4401 55.8934 63.1193 56.4634 63.1193 53.3503ZM68.7755 46.3761C68.9305 44.9067 69.0604 41.8383 67.9851 41.9693C67.4584 42.0347 67.2395 42.7164 67.2395 43.1537V45.9373C67.4816 47.5598 68.6653 47.3429 68.7755 46.3761Z" fill="#005DE2"/>
<path d="M69.169 66.4945C68.6103 66.6054 68.0473 66.7191 67.4825 66.8388C66.9093 66.9001 66.3358 66.9698 65.7615 67.0333L64.9016 67.129L64.4658 67.1797L64.1647 67.1867C63.8461 67.2829 63.5215 67.3734 63.1969 67.4726C62.6314 67.6427 62.0392 67.7342 61.4667 67.8754C60.3174 68.175 59.1154 68.2764 57.931 68.4529C57.3412 68.5071 56.7507 68.5306 56.1582 68.5666L55.2676 68.6225L54.3368 68.607L53.405 68.6003L52.9354 68.5968L52.7033 68.5933H52.5923H52.5821C52.5923 68.5933 52.6091 68.5968 52.5606 68.5933H52.5821C52.5763 68.5933 52.5713 68.5933 52.5728 68.5933L52.5173 68.5873C51.9168 68.5366 51.3159 68.4933 50.7171 68.4384C50.1159 68.4141 49.5272 68.2834 48.9364 68.199C48.3477 68.1088 47.7529 68.032 47.1767 67.8806C44.846 67.4183 42.6184 66.6554 40.5381 65.7661C40.0181 65.5319 39.51 65.303 38.9998 65.0689C38.5122 64.8087 38.0212 64.5461 37.5392 64.2872C37.0489 64.0443 36.5903 63.7534 36.1353 63.4693C35.6887 63.1782 35.2194 62.9218 34.7979 62.6144C33.9535 62.0022 33.1129 61.4307 32.3677 60.7825C31.9901 60.4681 31.6015 60.1763 31.2472 59.8544C30.8991 59.5323 30.5535 59.2129 30.2229 58.8988C30.0544 58.7429 29.8905 58.5879 29.7263 58.4348C29.5707 58.2693 29.417 58.1127 29.2656 57.9492C28.9649 57.6306 28.6723 57.3165 28.3797 57.0124C27.8067 56.4021 27.3241 55.7642 26.8393 55.1952C25.9342 53.9995 25.1496 52.9422 24.5941 52.0176C23.9971 51.118 23.5925 50.3543 23.3132 49.843C23.0223 49.3318 22.8708 49.0621 22.8708 49.0621C22.8708 49.0621 22.9885 49.3515 23.2004 49.8955C23.4321 50.4353 23.7045 51.2479 24.2193 52.2182C24.691 53.2193 25.3453 54.3798 26.1766 55.673C26.6165 56.2955 27.0548 56.9909 27.5898 57.6686C27.8649 58.0085 28.139 58.3503 28.4244 58.7077C28.5724 58.8788 28.7163 59.0597 28.8642 59.2372C29.0231 59.4101 29.1828 59.578 29.3403 59.7569C29.6649 60.104 30.0015 60.4596 30.3363 60.815C30.6769 61.1776 31.0595 61.5072 31.4331 61.8628C32.1605 62.5912 33.0189 63.2232 33.8655 63.9101C34.3001 64.2552 34.7656 64.5453 35.2267 64.8742C35.6895 65.1945 36.153 65.5252 36.6535 65.8093C37.1491 66.0984 37.6553 66.398 38.1594 66.6924C38.6891 66.9558 39.2242 67.2159 39.7567 67.4853C40.2839 67.7634 40.8509 67.9803 41.4162 68.2092C41.98 68.4296 42.54 68.695 43.1332 68.8689C43.7237 69.0616 44.3109 69.2545 44.9062 69.4542C45.5092 69.6091 46.1227 69.747 46.7351 69.8985C47.3481 70.0646 47.9766 70.1534 48.5981 70.2573C49.2283 70.358 49.849 70.4942 50.4892 70.5337C51.1237 70.5939 51.7637 70.6499 52.3994 70.7076L52.4601 70.7146C52.4893 70.7179 52.4374 70.7179 52.5281 70.7196H52.5618L52.677 70.7231L52.9127 70.7266L53.3787 70.7301L54.3115 70.7524L55.2411 70.7611L56.2187 70.6931C56.8617 70.6474 57.5187 70.6077 58.1581 70.5535C59.4178 70.3443 60.6875 70.2211 61.9107 69.8967C64.3894 69.394 66.7128 68.4746 68.8926 67.4863C69.4247 67.2159 69.9602 66.9455 70.4784 66.6821C71.0157 66.4255 71.4942 66.0932 71.9903 65.8005C72.0333 65.7756 72.0815 65.7456 72.1192 65.7213C71.6957 65.8558 71.2696 65.9875 70.8348 66.1276C70.2925 66.2843 69.7278 66.3688 69.169 66.4945Z" fill="#E61C2F"/>
<path d="M85.3426 49.8448C85.1944 50.1012 85.019 50.4146 84.8114 50.7814C84.7107 50.9656 84.5972 51.162 84.4748 51.3712C84.3406 51.5768 84.2001 51.7887 84.0574 52.0126C83.7578 52.4679 83.4315 52.9697 83.0751 53.5155C82.8547 53.8014 82.6273 54.1045 82.3914 54.4204C82.1143 54.2509 81.7922 54.144 81.4418 54.144C80.4553 54.144 79.6556 54.9396 79.6556 55.9287C79.6556 56.3952 79.8433 56.818 80.1342 57.1374C79.6049 57.7176 79.0391 58.3039 78.4272 58.8989C78.1145 59.2337 77.7462 59.5229 77.3896 59.838C77.0263 60.1506 76.6604 60.4664 76.2903 60.792C75.896 61.0897 75.4982 61.3885 75.0946 61.6984C74.6806 62.0005 74.2887 62.3364 73.8412 62.605C73.3399 62.9234 72.8371 63.2627 72.3188 63.5813C72.4188 63.5518 72.5178 63.5271 72.6247 63.4959L72.9948 63.3937L73.3606 63.2697C73.8567 63.0836 74.3827 62.9201 74.8397 62.723C75.7936 62.3424 76.7267 61.9213 77.629 61.4763C77.8544 61.2551 78.0836 61.0277 78.2987 60.8065C78.6476 60.4562 79.0099 60.1326 79.3095 59.7588C79.6176 59.4007 79.926 59.0486 80.2246 58.7077C80.3718 58.5321 80.519 58.3624 80.6679 58.1989C80.8056 58.0303 80.9288 57.8441 81.0573 57.6702C81.0573 57.6702 81.0588 57.6702 81.0588 57.6687C81.182 57.6962 81.3084 57.7141 81.4428 57.7141C82.4294 57.7141 83.2301 56.9152 83.2301 55.9297C83.2301 55.5628 83.1164 55.222 82.9269 54.9386C83.1603 54.5591 83.3892 54.1897 83.6012 53.8446C83.9033 53.2539 84.1786 52.7149 84.4283 52.2243C84.549 51.9814 84.6684 51.7455 84.7804 51.5304C84.8778 51.3082 84.9585 51.0931 85.0395 50.8941C85.1997 50.5026 85.3366 50.1685 85.4451 49.8921C85.662 49.3541 85.7792 49.0647 85.7792 49.0647C85.7792 49.0647 85.6233 49.3333 85.3426 49.8448Z" fill="#E61C2F"/>
<path d="M52.5829 68.5941H52.5605C52.611 68.5978 52.5936 68.5941 52.5829 68.5941Z" fill="#E61C2F"/>
<path d="M47.6658 61.8199C47.8894 61.9336 48.1268 62.0213 48.3595 62.1177C48.8223 62.3156 49.2886 62.5121 49.7604 62.7177C49.9993 62.8117 50.2354 62.9219 50.4778 63.0088C50.7219 63.087 50.9723 63.1672 51.2172 63.2472C51.7128 63.4064 52.2148 63.5676 52.7153 63.731C52.9655 63.8197 53.2211 63.8877 53.4815 63.9412L54.2262 64.1133C54.4341 64.1013 54.6485 64.0874 54.8554 64.0736C55.3906 64.0426 55.9297 64.0082 56.4669 63.9722C56.9989 63.9032 57.5275 63.8257 58.056 63.7535L58.8506 63.6433L59.0495 63.6158L59.12 63.6036L59.17 63.5941L59.2622 63.5761L59.6435 63.4986C60.1481 63.3867 60.6403 63.3057 61.1554 63.1765C61.6701 63.0398 62.1797 62.8934 62.6894 62.7557C63.1827 62.5948 63.6718 62.4303 64.1598 62.2702C64.6478 62.116 65.1154 61.9076 65.5872 61.7336C69.3355 60.2358 72.4916 58.1145 74.8721 55.9949C75.1792 55.7378 75.4513 55.4579 75.7337 55.197C76.0083 54.9294 76.29 54.69 76.5326 54.4188C77.0234 53.8858 77.5062 53.3961 77.917 52.8908C78.3286 52.399 78.7237 51.9454 79.043 51.4831C79.3779 51.0363 79.6842 50.635 79.9331 50.2407C80.1922 49.8586 80.4187 49.516 80.6098 49.2164C80.789 48.9048 80.9422 48.6464 81.0679 48.4277C81.3105 48.0042 81.445 47.7753 81.445 47.7753C81.445 47.7753 81.2795 47.9809 80.9722 48.365C80.8172 48.5534 80.6236 48.7893 80.4032 49.0647C80.1725 49.3318 79.9011 49.6364 79.5958 49.9808C79.3099 50.3251 78.9533 50.6885 78.5772 51.0803C78.1976 51.4806 77.7791 51.8902 77.3203 52.3243C76.4094 53.1996 75.3169 54.1045 74.0979 55.0411C73.4695 55.4939 72.8255 55.9684 72.123 56.398C71.4378 56.8645 70.6862 57.2811 69.9313 57.7219C68.3954 58.569 66.6994 59.3094 64.9147 59.9664C64.4629 60.1188 64.0186 60.2968 63.5503 60.4252C63.0905 60.5604 62.6205 60.6981 62.1504 60.835C61.6856 60.946 61.2078 61.0554 60.7368 61.1664C60.2635 61.2836 59.739 61.3636 59.2389 61.465L58.8619 61.541L58.7654 61.5565L58.7189 61.565C58.7654 61.5565 58.7189 61.565 58.7224 61.565H58.7L58.5105 61.589L57.7668 61.6829C57.2648 61.7441 56.7655 61.8131 56.2688 61.8741C55.7617 61.9008 55.2555 61.9265 54.7559 61.9498C54.2499 61.9783 53.7441 62.0128 53.2396 61.986L51.721 61.9645C51.2112 61.974 50.7132 61.8903 50.2127 61.8593C49.7134 61.8068 49.2041 61.7966 48.7103 61.7097C48.2175 61.6287 47.7203 61.546 47.2257 61.466C47.1005 61.4513 46.9726 61.4248 46.8484 61.3998C46.8961 61.4248 46.9474 61.4513 47.0063 61.4825C47.2207 61.596 47.4444 61.7097 47.6658 61.8199Z" fill="#F47E1F"/>
<path d="M46.1791 63.0388C45.2842 62.5 44.3798 62.0255 43.5889 61.4238C42.9192 60.9315 42.239 60.4907 41.6338 59.9861C41.6153 59.9791 41.5921 59.9671 41.5718 59.9629C40.68 59.6238 39.8001 59.3059 38.976 58.8944C38.5527 58.7095 38.1374 58.519 37.7275 58.3376C37.335 58.1205 36.9454 57.9046 36.561 57.6961C36.1839 57.4775 35.7819 57.3001 35.4285 57.0617C35.0652 56.8283 34.7128 56.6061 34.362 56.3857C33.6496 55.9684 33.0201 55.4699 32.3961 55.0221C31.7504 54.59 31.2126 54.0847 30.6584 53.6397C30.394 53.414 30.1216 53.2101 29.8677 52.982C29.6271 52.7528 29.3914 52.5324 29.1613 52.312C28.2242 51.4649 27.504 50.6455 26.8765 49.9808C26.2601 49.3093 25.8257 48.7256 25.5094 48.3573C25.1925 47.9749 25.0269 47.7735 25.0269 47.7735C25.0269 47.7735 25.159 48.0024 25.4129 48.4242C25.5321 48.6344 25.6905 48.896 25.874 49.2009C26.0546 49.5047 26.2548 49.8638 26.5324 50.2322C27.0767 50.9761 27.7042 51.9247 28.5708 52.8785C28.7807 53.1249 28.9994 53.376 29.2223 53.6362C29.4504 53.8876 29.7028 54.1372 29.9567 54.3988C30.4672 54.9119 30.9957 55.4699 31.6122 55.9727C32.2272 56.4839 32.8329 57.0599 33.5446 57.5567C34.2375 58.0697 34.9525 58.601 35.7484 59.0701C36.1405 59.3104 36.534 59.5591 36.9344 59.807C37.3517 60.0316 37.7725 60.2555 38.2021 60.4829C39.0447 60.9597 39.9693 61.3248 40.8939 61.7216C41.3524 61.9318 41.8357 62.0902 42.3195 62.2536C42.806 62.4173 43.2928 62.5878 43.7866 62.7532C44.2846 62.8874 44.7904 63.0198 45.3009 63.1535C45.8105 63.2902 46.322 63.4184 46.8453 63.5004C46.9202 63.5159 46.9972 63.5271 47.0739 63.5398C47.0034 63.5003 46.9267 63.4694 46.8595 63.4314C46.6314 63.2972 46.4072 63.1672 46.1791 63.0388Z" fill="#F47E1F"/>
<path d="M91.3613 49.3076C91.0797 49.7537 90.6079 50.3734 90.0294 51.1621C89.4302 51.9402 88.6837 52.8683 87.7584 53.8626C86.8493 54.8672 85.737 55.9192 84.4733 56.9937C83.2017 58.0578 81.751 59.1253 80.1343 60.1049C79.3424 60.5862 78.5005 61.0432 77.6284 61.4763C76.7267 61.9213 75.7929 62.3424 74.8381 62.723C74.3818 62.9219 73.855 63.0836 73.36 63.2697L72.9941 63.3969L72.6238 63.4986C72.5171 63.5296 72.4189 63.5546 72.3174 63.5846C72.1625 63.6261 72.0108 63.6673 71.8586 63.713C71.3496 63.8497 70.8418 63.9912 70.3236 64.1391C69.8138 64.2803 69.2793 64.351 68.755 64.4644C68.2265 64.5679 67.7005 64.6669 67.1727 64.7693C66.6287 64.8243 66.0897 64.882 65.5492 64.9363L64.7363 65.0172L64.3327 65.0619L63.9279 65.0662L62.2896 65.0879L61.4719 65.1102L60.6541 65.0567C60.1133 65.0225 59.5675 64.987 59.0268 64.9492L58.6172 64.9267L58.2176 64.8658L57.4127 64.7443C56.8797 64.6626 56.3477 64.5817 55.8174 64.499C55.2949 64.3708 54.7709 64.2476 54.2561 64.1201L54.2224 64.1134L53.4775 63.9412C53.2173 63.887 52.9617 63.8187 52.7116 63.731C52.2105 63.5676 51.709 63.4064 51.2137 63.2472C50.9688 63.1673 50.7182 63.0871 50.474 63.0088C50.2309 62.9219 49.9955 62.8117 49.7566 62.7177C49.2848 62.5121 48.8195 62.3157 48.3559 62.1178C48.1238 62.0223 47.8859 61.9336 47.662 61.8199C47.4409 61.7097 47.2164 61.596 47.0025 61.4808C46.9436 61.4495 46.8924 61.4238 46.8446 61.398C46.0195 60.9692 45.1873 60.5819 44.4529 60.0816C43.6605 59.5711 42.8539 59.1133 42.1574 58.5581C41.8006 58.2937 41.4432 58.0303 41.0976 57.7772C40.925 57.6462 40.7523 57.524 40.5821 57.3966C40.4179 57.2641 40.2623 57.1177 40.1068 56.9807C39.4836 56.4297 38.8903 55.902 38.3208 55.4019C37.7918 54.8562 37.2921 54.3379 36.8203 53.8496C36.323 53.3831 35.9564 52.8673 35.5751 52.4172C35.1967 51.9644 34.8554 51.5536 34.5363 51.1723C33.4053 49.5597 32.7531 48.6327 32.7531 48.6327C32.7531 48.6327 32.8818 48.8858 33.1182 49.3558C33.3673 49.8266 33.7026 50.5276 34.1787 51.3909C34.4488 51.812 34.7534 52.2743 35.0723 52.7806C35.3986 53.2824 35.74 53.8461 36.19 54.3756C36.6249 54.9232 37.0877 55.5026 37.5779 56.1096C38.103 56.6899 38.6877 57.2691 39.2824 57.8923C39.4371 58.044 39.5885 58.2042 39.744 58.3564C39.9097 58.4976 40.0753 58.6465 40.2445 58.7895C40.5846 59.0856 40.9292 59.3852 41.2858 59.6848C41.3938 59.7915 41.513 59.888 41.6302 59.9844C42.2359 60.489 42.9156 60.9298 43.5856 61.423C44.3765 62.0248 45.2808 62.4991 46.1757 63.0371C46.4028 63.1663 46.6267 63.2962 46.8579 63.4332C46.9251 63.4694 47.0018 63.5021 47.0723 63.5416C47.2362 63.6208 47.4046 63.6965 47.5685 63.7793C48.0551 64.0004 48.5444 64.2296 49.0352 64.455C49.2841 64.5679 49.5244 64.6919 49.7836 64.7856C50.0412 64.8803 50.2969 64.9707 50.5542 65.0679C51.078 65.2541 51.597 65.445 52.1236 65.6354C53.1856 65.9875 54.2983 66.2372 55.3956 66.5238C55.9656 66.6178 56.5286 66.7125 57.0969 66.8037L57.956 66.9421L58.3785 67.0128L58.8159 67.0438C59.3884 67.0921 59.9654 67.1368 60.5446 67.1815L61.4142 67.2417L62.2863 67.2287L64.0278 67.1885L64.1613 67.185L64.4609 67.1763L64.8964 67.1265L65.7573 67.0318C66.3308 66.9681 66.9041 66.8984 67.4783 66.8364C68.0421 66.7167 68.6068 66.603 69.1648 66.4921C69.7236 66.3644 70.2891 66.2819 70.8313 66.126C71.2661 65.9858 71.6925 65.8541 72.116 65.7197C72.227 65.6887 72.3354 65.6492 72.4431 65.6155C72.7153 65.5302 72.9734 65.4495 73.2403 65.3643L73.6329 65.2394L74.0339 65.0844C74.536 64.8785 75.0215 64.7141 75.5258 64.4765C77.5569 63.6106 79.3596 62.5698 81.0039 61.448C82.6457 60.34 84.0685 59.1063 85.2963 57.9019C86.5272 56.7019 87.5605 55.5061 88.3851 54.3834C88.8172 53.8411 89.172 53.2919 89.5154 52.7993C89.8435 52.2966 90.1164 51.8215 90.3825 51.3997C90.8756 50.5386 91.2329 49.8464 91.4568 49.3661C91.6859 48.8876 91.8131 48.6309 91.8131 48.6309C91.8131 48.6309 91.6592 48.8668 91.3613 49.3076Z" fill="#005DE2"/>
<path d="M53.7426 6.74598C53.2903 6.87467 52.846 6.99987 52.3984 7.12782C52.177 7.19154 51.9519 7.25301 51.7317 7.31623L51.6498 7.33873L51.612 7.35147L51.5843 7.35721C51.5985 7.35146 51.5371 7.37346 51.6003 7.34647L51.4346 7.40621L51.104 7.52888C50.6615 7.69031 50.2269 7.8535 49.7898 8.01268C49.5739 8.09065 49.3595 8.17237 49.1471 8.24983C48.9337 8.3313 48.7405 8.42724 48.5416 8.51371C48.1925 8.67314 47.8469 8.82282 47.5011 8.9835C47.9674 8.88004 48.4304 8.79408 48.9075 8.73861C49.35 8.67688 49.7891 8.59468 50.2401 8.55095C50.6899 8.51246 51.141 8.47123 51.5925 8.428C52.0493 8.37428 52.4926 8.37427 52.9359 8.35752C53.3935 8.34428 53.8203 8.30804 54.2946 8.32653L55.7017 8.35328L56.0583 8.35928L56.3647 8.37778L57.0397 8.43325C57.9488 8.48298 58.8451 8.61591 59.7342 8.72936C61.5094 9.00199 63.2252 9.41481 64.867 9.9046C66.5042 10.4144 68.0506 11.0174 69.4882 11.6711C70.1906 12.0249 70.8923 12.343 71.537 12.7171C71.8626 12.8975 72.1863 13.0722 72.4996 13.2484C72.8077 13.438 73.1066 13.6207 73.3992 13.7991C74.5815 14.5301 75.6195 15.2698 76.5209 15.9577C77.4102 16.6556 78.1834 17.2834 78.7859 17.8361C79.3988 18.3694 79.8671 18.8294 80.1805 19.1398C80.5026 19.4417 80.6695 19.6051 80.6695 19.6051C80.6695 19.6051 80.5318 19.4174 80.2752 19.0551C80.0058 18.7055 79.6425 18.1725 79.0925 17.5442C78.5655 16.8963 77.8845 16.1551 77.0589 15.3412C76.223 14.5318 75.2529 13.6442 74.1002 12.7881C72.9732 11.9015 71.6542 11.0629 70.2114 10.2467C68.7565 9.46805 67.176 8.71087 65.4652 8.10363C63.7615 7.50689 61.9485 7.00411 60.0708 6.67626C59.5965 6.59704 59.1247 6.53807 58.6512 6.46485C58.1744 6.38913 57.7009 6.35041 57.2206 6.31243L56.4946 6.25696L56.3182 6.24022L56.227 6.23021L56.1788 6.22772H56.153C55.8094 6.29744 55.4668 6.36541 55.1245 6.43388C54.6587 6.52909 54.1912 6.60054 53.7426 6.74598Z" fill="#E61C2F"/>
<path d="M44.3478 8.896C44.7069 8.66685 45.0745 8.4357 45.4506 8.20256C45.6365 8.08511 45.8229 7.95968 46.0176 7.84773C46.216 7.74328 46.4169 7.63732 46.6223 7.53237C47.0279 7.31771 47.4379 7.10156 47.852 6.88465C47.9335 6.84667 48.0085 6.80868 48.0814 6.7652C47.3073 6.90639 46.5533 7.10931 45.8037 7.28023C45.3529 7.40443 44.9121 7.54236 44.467 7.67705C44.0272 7.80225 43.5889 7.94344 43.1666 8.10711C42.7478 8.26255 42.3247 8.42396 41.9096 8.58139C41.4986 8.74782 41.0992 8.936 40.7019 9.11392C39.9048 9.45177 39.1626 9.87909 38.4274 10.2529C38.0616 10.4371 37.715 10.67 37.3731 10.8666C37.031 11.0788 36.6847 11.2712 36.3608 11.4876C35.7298 11.9409 35.1006 12.343 34.5389 12.788C34.2542 13.0142 33.9784 13.2306 33.7092 13.439C33.4358 13.6512 33.1742 13.8568 32.9413 14.0842C32.4575 14.5285 31.9867 14.9279 31.5794 15.3402C31.1696 15.7513 30.7888 16.1366 30.4439 16.4987C30.118 16.8788 29.8172 17.2286 29.5503 17.5425C29.4109 17.7022 29.2864 17.8476 29.162 17.985C29.051 18.1312 28.9463 18.2734 28.8504 18.4021C28.6622 18.6612 28.493 18.8774 28.3643 19.058C28.1044 19.4166 27.9633 19.6043 27.9633 19.6043C27.9633 19.6043 28.1324 19.4406 28.4578 19.1398C28.7824 18.8394 29.2257 18.3693 29.8517 17.8411C30.1628 17.5724 30.5034 17.2746 30.8727 16.9492C31.2648 16.6481 31.6736 16.3143 32.1189 15.9609C33.021 15.277 34.0628 14.5408 35.2426 13.8041C35.8163 13.4248 36.4625 13.0924 37.1 12.7206C37.7637 12.3792 38.4392 12.0141 39.1549 11.6768C39.881 11.3699 40.6095 11.0098 41.3894 10.7379C41.6652 10.6355 41.9439 10.533 42.227 10.4266C42.5771 10.1549 42.9412 9.89083 43.3005 9.60245C43.6244 9.33507 43.9857 9.1254 44.3478 8.896Z" fill="#E61C2F"/>
<path d="M70.3469 6.51781C69.9191 6.3059 69.4885 6.092 69.0477 5.8761C68.1903 5.4193 67.252 5.07446 66.3274 4.68138C65.8694 4.46623 65.3701 4.33929 64.888 4.17011C64.4025 4.01343 63.9202 3.8335 63.4157 3.69681C63.197 3.64033 62.9819 3.58461 62.7632 3.53089L62.2844 3.51239C61.2481 3.54613 60.2166 3.58986 59.1853 3.66232C58.6793 3.73104 58.1695 3.80176 57.6615 3.86324L56.9065 3.97169L56.5287 4.02715L56.1534 4.10212C55.6573 4.21707 55.1611 4.32327 54.671 4.43747C54.1805 4.54767 53.6885 4.64439 53.2192 4.81631C52.7451 4.96524 52.2736 5.11144 51.8043 5.26162C51.5719 5.33834 51.339 5.4133 51.1078 5.48977L50.8989 5.55624L50.7342 5.62472L50.4079 5.75889C49.9761 5.93831 49.544 6.121 49.12 6.30167C48.9086 6.38988 48.6961 6.4756 48.4872 6.56181C48.3513 6.62528 48.2174 6.69349 48.0827 6.76521C48.0095 6.80869 47.9345 6.84668 47.8533 6.88467C47.4392 7.10157 47.0289 7.31847 46.6233 7.53238C46.4181 7.63733 46.217 7.74429 46.0186 7.84774C45.8242 7.95969 45.638 8.08512 45.4518 8.20257C45.0755 8.43497 44.7072 8.66612 44.3488 8.89601C43.987 9.12466 43.6246 9.33507 43.3008 9.60396C42.9414 9.89158 42.5781 10.1567 42.2272 10.4283C41.9479 10.6415 41.672 10.8542 41.4123 11.0676C40.8451 11.5816 40.3018 12.0724 39.7793 12.5364C39.283 13.0202 38.8517 13.5218 38.4199 13.9723C38.2132 14.1962 38.0036 14.4113 37.8142 14.6235C37.6318 14.8514 37.4631 15.0708 37.2914 15.283C36.9658 15.7 36.6637 16.0871 36.3938 16.4337C35.873 17.1504 35.5187 17.7524 35.2498 18.1402C35.0039 18.5361 34.8662 18.7467 34.8662 18.7467C34.8662 18.7467 35.0354 18.5608 35.353 18.2144C35.6736 17.8671 36.1222 17.3461 36.7184 16.7086C37.0313 16.406 37.3779 16.0669 37.7497 15.7C37.9374 15.5141 38.1273 15.3265 38.3317 15.128C38.5431 14.9381 38.7678 14.754 38.9954 14.5513C39.4649 14.1652 39.9325 13.7299 40.4633 13.3146C41.0035 12.9125 41.5738 12.4912 42.1625 12.0434C42.77 11.6263 43.4312 11.2285 44.0942 10.7994C44.4293 10.58 44.7829 10.3889 45.1397 10.194C45.4985 9.99804 45.8646 9.80164 46.2337 9.59898C46.4157 9.49902 46.6016 9.39232 46.79 9.29711C46.9824 9.21539 47.1778 9.12542 47.3712 9.04146C47.4125 9.01872 47.4654 8.99922 47.5042 8.98248C47.8505 8.82205 48.1964 8.67212 48.5445 8.51244C48.7439 8.42648 48.9365 8.33052 49.1502 8.24906C49.3624 8.17159 49.5768 8.09062 49.7927 8.01191C50.2302 7.85273 50.6645 7.68956 51.1068 7.52813L51.4375 7.40543L51.6031 7.34545C51.5402 7.37269 51.6016 7.35071 51.5874 7.35621L51.6149 7.3507L51.6529 7.33747L51.7351 7.31546C51.9552 7.25124 52.1801 7.18927 52.4013 7.1268C52.8491 6.9981 53.2931 6.87392 53.7457 6.74522C54.1942 6.59954 54.6615 6.52731 55.1276 6.43311C55.4672 6.36539 55.8098 6.29742 56.1534 6.2277C56.2773 6.19572 56.3988 6.17571 56.52 6.15447L56.8713 6.08226L57.2277 6.03928L57.9423 5.95431C58.4209 5.89709 58.9029 5.84062 59.3782 5.7799C60.344 5.72143 61.3126 5.68569 62.2829 5.6582L63.7291 5.70867C64.2191 5.73566 64.7036 5.71016 65.1857 5.78688C65.661 5.84336 66.1415 5.89633 66.62 5.94831L67.3362 6.02579C67.5721 6.06277 67.8055 6.109 68.0414 6.15623C68.9343 6.33715 69.8321 6.46409 70.692 6.71623C70.5715 6.64901 70.4631 6.58103 70.3469 6.51781Z" fill="#005DE2"/>
<path d="M89.3169 18.1395C89.05 17.7517 88.6839 17.1607 88.1872 16.438C87.91 16.0889 87.6054 15.7113 87.2738 15.2912C87.1034 15.0836 86.9305 14.8689 86.7445 14.6403C86.5654 14.4096 86.365 14.1902 86.1496 13.9706C86.1048 13.9193 86.0524 13.8741 86.0109 13.8241C86.1211 13.587 86.1883 13.3206 86.1883 13.0455C86.1883 12.0107 85.3514 11.1823 84.3201 11.1823C84.0197 11.1823 83.7331 11.2545 83.48 11.384C83.368 11.289 83.2508 11.1915 83.1391 11.0921C82.5751 10.5658 81.9149 10.1172 81.2537 9.62271C80.9179 9.38382 80.5823 9.1212 80.2207 8.89005C79.8556 8.6714 79.4855 8.444 79.1067 8.21635C78.7288 7.98995 78.3515 7.75105 77.9556 7.52715C77.5526 7.32549 77.1438 7.12008 76.7254 6.91067C76.3121 6.70476 75.8988 6.4791 75.4685 6.29144C75.0259 6.11926 74.5799 5.93758 74.1306 5.76415C73.6795 5.59573 73.2335 5.37959 72.7599 5.2459C72.2944 5.10721 71.8226 4.96425 71.3413 4.82182C70.9625 4.68838 70.5682 4.59067 70.1791 4.49371C70.5114 4.68763 70.8505 4.8773 71.1776 5.06321C71.6099 5.32685 72.0103 5.61348 72.4173 5.88112C72.8204 6.15875 73.23 6.40939 73.6021 6.69951C73.9739 6.99038 74.3425 7.28325 74.6988 7.56588C75.0439 7.82076 75.3583 8.09415 75.6647 8.36828C75.7749 8.41651 75.8801 8.45999 75.9868 8.50897C76.3963 8.68214 76.7959 8.85205 77.1895 9.01873C77.5776 9.2099 77.9522 9.41482 78.3247 9.60849C78.6968 9.8044 79.0652 9.99707 79.432 10.1842C79.7876 10.3824 80.1129 10.6143 80.4598 10.8145C81.1347 11.2295 81.8107 11.6036 82.39 12.0647C82.4744 12.1209 82.5571 12.1843 82.6398 12.2436C82.5226 12.4852 82.4487 12.7541 82.4487 13.0465C82.4487 14.0753 83.2888 14.9084 84.3184 14.9084C84.7662 14.9084 85.169 14.748 85.4961 14.4846C85.5151 14.5066 85.5461 14.5293 85.5703 14.5513C86.0524 14.9219 86.4139 15.352 86.809 15.7001C87.1871 16.0651 87.5347 16.3993 87.8516 16.7014C89.0191 18.0115 89.7035 18.7467 89.7035 18.7467C89.7035 18.7467 89.5698 18.5351 89.3169 18.1395Z" fill="#005DE2"/>
<path d="M82.8816 17.6122C82.7592 17.3823 82.6137 17.0964 82.4313 16.7633C82.2591 16.4262 82.0662 16.0366 81.7923 15.6331C81.5255 15.2198 81.2293 14.7639 80.9092 14.2684C80.8333 14.1422 80.7491 14.017 80.6674 13.8883C80.5716 13.7621 80.4752 13.641 80.3797 13.513C80.1868 13.2609 79.9804 13.0017 79.7727 12.7291C79.5601 12.4592 79.3424 12.1798 79.1263 11.889C78.8861 11.6151 78.6295 11.3437 78.3728 11.0568C77.8566 10.4831 77.3176 9.87561 76.6838 9.31585C76.3517 9.00824 76.0159 8.68561 75.6663 8.37C75.3599 8.09587 75.0456 7.82251 74.7005 7.56762C74.3439 7.28399 73.9763 6.9921 73.6037 6.70123C73.2316 6.4111 72.822 6.16046 72.419 5.88284C72.0126 5.6152 71.6116 5.32834 71.1793 5.06496C70.8521 4.87904 70.513 4.68912 70.1807 4.49546C70.0722 4.43823 69.9688 4.37551 69.8648 4.31729C68.9867 3.77977 68.0052 3.39094 67.0411 2.93164C66.5598 2.69375 66.0468 2.54305 65.537 2.34364C65.0275 2.16472 64.5212 1.95206 63.9892 1.79288C63.4657 1.6392 62.9329 1.48752 62.3931 1.33359C62.127 1.25562 61.8593 1.17991 61.5837 1.11569L60.7616 0.958508C60.2106 0.850805 59.6538 0.744614 59.0976 0.64041C58.5328 0.563694 57.9723 0.506708 57.4068 0.441986C56.2773 0.275559 55.1283 0.298287 53.9906 0.247809C53.7052 0.225819 53.4193 0.249076 53.1339 0.265819L52.2768 0.309793C51.7073 0.354524 51.1353 0.353019 50.5746 0.434983C50.0075 0.510949 49.4463 0.585664 48.8845 0.66313L48.4662 0.720624L48.2568 0.747101L48.1511 0.764843L48.0189 0.791833L47.2148 0.957751C46.165 1.14442 45.0402 1.46653 43.9895 1.79064C43.4682 1.96356 42.9481 2.14349 42.4369 2.32041C41.9328 2.51882 41.4331 2.72424 40.9375 2.9219C39.3057 3.61735 37.7967 4.44099 36.3963 5.30836C36.1339 5.17192 35.841 5.08519 35.5264 5.08519C34.4976 5.08519 33.66 5.92558 33.66 6.94963C33.66 7.04209 33.675 7.13281 33.6885 7.21777C32.8236 7.90422 32.0137 8.59892 31.281 9.29286C30.067 10.4778 29.0293 11.6271 28.2059 12.7206C27.9952 12.99 27.789 13.2531 27.5984 13.504C27.4047 13.7614 27.239 14.0205 27.0769 14.2667C26.7435 14.7522 26.4384 15.1983 26.196 15.6261C25.9438 16.0484 25.7175 16.416 25.5348 16.7508C25.3631 17.0874 25.2184 17.3741 25.0992 17.6087C24.8621 18.068 24.7334 18.3182 24.7334 18.3182C24.7334 18.3182 24.8941 18.0925 25.1934 17.6659C25.3464 17.4515 25.5313 17.1934 25.7502 16.8838C25.9798 16.5912 26.2465 16.2478 26.5443 15.8667C26.8297 15.4824 27.1801 15.0761 27.5621 14.6402C27.7513 14.4233 27.9502 14.1952 28.1551 13.9591C28.3715 13.7309 28.5967 13.4945 28.8221 13.2539C29.733 12.277 30.8505 11.2695 32.0972 10.2125C32.8211 9.63046 33.6135 9.04321 34.4506 8.47296C34.755 8.68812 35.1218 8.8168 35.5247 8.8168C36.557 8.8168 37.3921 7.98217 37.3921 6.94787C37.3921 6.85341 37.3761 6.75922 37.3611 6.66926C38.7018 5.93583 40.1351 5.26786 41.6452 4.67162C42.118 4.49895 42.599 4.32329 43.0803 4.14637C43.5716 4.00018 44.0627 3.85123 44.5582 3.6983C45.0545 3.55036 45.556 3.44992 46.0573 3.32397C46.5426 3.18354 47.0871 3.08832 47.6224 2.98887L48.4245 2.82844L48.4772 2.81943L48.5019 2.8107C48.5074 2.8107 48.5057 2.8107 48.5075 2.8107C48.502 2.81769 48.4925 2.81945 48.4967 2.8177L48.5967 2.80121L48.7966 2.78146L49.1879 2.72897C49.7204 2.66175 50.2505 2.60029 50.7762 2.52957C51.3115 2.4556 51.844 2.4706 52.382 2.43462C52.916 2.42212 53.4545 2.3624 53.9878 2.38239C55.0581 2.42138 56.1394 2.39189 57.1974 2.53658C57.7269 2.5948 58.2607 2.63603 58.7849 2.698C59.311 2.79496 59.8327 2.88741 60.3528 2.98887L61.1302 3.12455L61.8981 3.31621C62.1864 3.39018 62.4706 3.46166 62.7597 3.53013C62.9801 3.58286 63.1953 3.63933 63.4132 3.69581C63.9202 3.8335 64.4025 4.01343 64.888 4.17011C65.3701 4.33854 65.8701 4.46623 66.3274 4.68139C67.2537 5.07546 68.1903 5.42005 69.0477 5.8761C69.4885 6.09201 69.9191 6.3059 70.3476 6.51781C70.4641 6.58103 70.5725 6.64902 70.6937 6.71799C70.9848 6.88967 71.2792 7.06184 71.5659 7.22927C71.9619 7.47416 72.37 7.68782 72.7436 7.94346C73.1197 8.20759 73.4832 8.45647 73.8446 8.70411C74.5868 9.17915 75.2317 9.73016 75.8782 10.2344C76.5324 10.7212 77.0834 11.2772 77.6412 11.7778C77.9168 12.0284 78.1957 12.269 78.4471 12.5139C78.6855 12.7723 78.9256 13.0245 79.1572 13.2669C80.1016 14.2182 80.8195 15.1233 81.4378 15.8675C81.7581 16.2291 81.994 16.5959 82.2229 16.8963C82.4416 17.2016 82.6327 17.4633 82.7877 17.6719C83.0898 18.0942 83.2525 18.3211 83.2525 18.3211C83.2525 18.3211 83.12 18.0723 82.8816 17.6122Z" fill="#F47E1F"/>
</svg>
