<svg width="22" height="22" viewBox="0 0 22 22" fill="none" xmlns="http://www.w3.org/2000/svg">
<path fill-rule="evenodd" clip-rule="evenodd" d="M11.8702 1.32119C11.3797 0.830761 10.5846 0.830761 10.0942 1.32119C9.60373 1.81163 9.60373 2.60678 10.0942 3.09721L16.7412 9.74422H2.19138C1.4978 9.74422 0.935547 10.3065 0.935547 11.0001C0.935547 11.6936 1.4978 12.2559 2.19138 12.2559H16.7411L10.0942 18.9028C9.60373 19.3933 9.60373 20.1884 10.0942 20.6789C10.5846 21.1693 11.3797 21.1693 11.8702 20.6789L20.6536 11.8954C20.6808 11.8687 20.7068 11.8407 20.7314 11.8116C20.8063 11.7234 20.867 11.6273 20.9136 11.5263C20.9876 11.3663 21.0289 11.188 21.0289 11.0001C21.0289 10.8249 20.993 10.6581 20.9282 10.5066C20.867 10.3632 20.778 10.229 20.661 10.112L11.8702 1.32119Z" fill="#1569CE"/>
</svg>
